<svg xmlns="http://www.w3.org/2000/svg" viewBox="0 0 264.13 139.4"><defs><style>.cls-1{fill:#fff;}</style></defs><title>Asset 4</title><g id="Layer_2" data-name="Layer 2"><g id="Layer_1-2" data-name="Layer 1"><path class="cls-1" d="M102,136.4H0L40,92.8C47,85,57.6,72,61.8,65.6c3-4.8,8-13.4,8-22.6,0-5-2-10.2-5.2-13.2C62,27.4,57.6,26,52.4,26c-5.8,0-9.6,2-12.2,4.8-3.6,4-5.6,11.2-5.6,16.4H3.8c1-11.6,5.6-24.8,13.8-33.4C24,7,35.4,0,54.4,0,73.8,0,84.2,8,89,12.6c7.2,7.2,12.4,18.2,12.4,32,0,11.8-3.6,20.4-10,29.4C85.6,82,78.6,88.8,70,97L56,110.4h46Z"/><path class="cls-1" d="M206,29H161l-3.6,17.8a68.22,68.22,0,0,1,11-1c15,0,26.6,5.4,34,13,6,6,12.2,16.4,12.2,32.2,0,17.2-7.4,28.2-13.6,34.4-12.2,12-26.8,14-40.4,14-12.6,0-27.6-1.6-44.4-14.6l7-28.6a65.58,65.58,0,0,0,12.8,11,36.41,36.41,0,0,0,20.2,5.8c7,0,14.2-1.6,19-5.4A20.81,20.81,0,0,0,183,90.8a19.79,19.79,0,0,0-6.8-15.6c-1.6-1.4-8.2-7-22.2-7a57.13,57.13,0,0,0-27.2,7L140.42,3H206Z"/><path class="cls-1" d="M248,11.47,262.62,3V7.49l-10.33,6,10.33,6v4.49L248,15.42H236.81V11.47Z"/><path class="cls-1" d="M258.9,49V38.67h-6.54v10h-3.71v-10h-8.12V49h-3.71V34.72h25.8V49Z"/><path class="cls-1" d="M243,77v-11l-6.23-2.82V58.86l27.31,12.84L236.81,83.93V79.68Zm3.71-1.59,8.74-3.83-8.74-4Z"/><path class="cls-1" d="M262.62,99.53c0,3.13-.39,5.15-1.51,6.81a7.2,7.2,0,0,1-6.07,3.06,7.08,7.08,0,0,1-7.2-5.73l-11,8V107l10.56-7.39v-.7H236.81V94.92h25.8Zm-11.84-.66v1.24c0,1.08.12,5.49,4.22,5.49,3.64,0,4-3.44,4-5.38V98.87Z"/><path class="cls-1" d="M256.89,134.46a4,4,0,0,0,2.55-3.95c0-2.4-1.43-3.64-3.09-3.64-.77,0-2.13.27-3.13,2.79l-1,2.59c-1.93,4.76-4.64,6.07-7.58,6.07a8,8,0,0,1-8.28-8.32,7.55,7.55,0,0,1,2.59-6.07,8.35,8.35,0,0,1,5-2.17l.85,3.91a5.57,5.57,0,0,0-3.29,1.08,4.07,4.07,0,0,0-1.55,3.37,4.15,4.15,0,0,0,4.33,4.26c2.63,0,3.71-2,4.41-3.71l1-2.48c.89-2.13,2.67-5.26,6.54-5.26,3.48,0,6.81,2.71,6.81,7.54a7.61,7.61,0,0,1-1.74,5.18,8.8,8.8,0,0,1-2.59,2Z"/></g></g></svg>