<svg xmlns="http://www.w3.org/2000/svg" viewBox="0 0 271.87 17.86"><defs><style>.cls-1{fill:#fff;}</style></defs><title>Asset 5</title><g id="Layer_2" data-name="Layer 2"><g id="Layer_1-2" data-name="Layer 1"><path class="cls-1" d="M58,4.13a1,1,0,0,1-.33-.31.72.72,0,0,1-.16-.37.22.22,0,0,1,.05-.16Q62.21.14,62.32.14h.05c.15,0,.25.17.33.52a9.31,9.31,0,0,0-.27,2.57V14a10.31,10.31,0,0,0,.22,2.43q.05.19.81.37a5.41,5.41,0,0,0,1,.18q.11,0,.11.49a.94.94,0,0,1,0,.3q-2.73-.14-3.31-.14t-3.17.14a.66.66,0,0,1-.11-.45c0-.23,0-.34.11-.34a5.36,5.36,0,0,0,1.11-.18q.75-.18.81-.37a6.49,6.49,0,0,0,.16-1.56V5a9.9,9.9,0,0,0-.05-1.2A1.44,1.44,0,0,0,60,3.32a.24.24,0,0,0-.21-.1,1.17,1.17,0,0,0-.48.16l-.72.41Z"/><path class="cls-1" d="M80.09,0a4.65,4.65,0,0,1,3.72,1.76,6.18,6.18,0,0,1,1.48,4.09A10.47,10.47,0,0,1,84.41,10a12.65,12.65,0,0,1-2.26,3.55,18.69,18.69,0,0,1-2.93,2.63,12.56,12.56,0,0,1-3.08,1.65q-.16,0-.38-.33a1.07,1.07,0,0,1-.22-.46,12.31,12.31,0,0,0,4-2.69,9.83,9.83,0,0,0,2.68-4.58c0-.18,0-.27,0-.27l-.08.05a2.79,2.79,0,0,1-1.26.66,5.72,5.72,0,0,1-1.7.3,4.37,4.37,0,0,1-3.34-1.48,5,5,0,0,1-1.37-3.53,5.23,5.23,0,0,1,1.68-3.9A5.44,5.44,0,0,1,80.09,0Zm2.84,5.91A6.22,6.22,0,0,0,82,2.52a2.72,2.72,0,0,0-2.37-1.45,2.5,2.5,0,0,0-2,1.09A4.56,4.56,0,0,0,76.78,5a4.77,4.77,0,0,0,.9,3,3,3,0,0,0,2.57,1.19,2.79,2.79,0,0,0,1.42-.4A2,2,0,0,0,82.55,8,5.49,5.49,0,0,0,82.93,5.91Z"/><path class="cls-1" d="M98.92,0a4.65,4.65,0,0,1,3.72,1.76,6.18,6.18,0,0,1,1.48,4.09,10.47,10.47,0,0,1-.87,4.17A12.65,12.65,0,0,1,101,13.58a18.69,18.69,0,0,1-2.93,2.63A12.56,12.56,0,0,1,95,17.86q-.16,0-.38-.33a1.07,1.07,0,0,1-.22-.46,12.31,12.31,0,0,0,4-2.69,9.83,9.83,0,0,0,2.68-4.58c0-.18,0-.27,0-.27l-.08.05a2.79,2.79,0,0,1-1.26.66,5.72,5.72,0,0,1-1.7.3,4.37,4.37,0,0,1-3.34-1.48,5,5,0,0,1-1.37-3.53A5.23,5.23,0,0,1,95,1.63,5.44,5.44,0,0,1,98.92,0Zm2.84,5.91a6.22,6.22,0,0,0-.92-3.39,2.72,2.72,0,0,0-2.37-1.45,2.5,2.5,0,0,0-2,1.09A4.56,4.56,0,0,0,95.61,5a4.77,4.77,0,0,0,.9,3,3,3,0,0,0,2.57,1.19,2.79,2.79,0,0,0,1.42-.4,2,2,0,0,0,.88-.83A5.49,5.49,0,0,0,101.77,5.91Z"/><path class="cls-1" d="M117.95.14a3.44,3.44,0,0,1,2.88,1.37,4.94,4.94,0,0,1,1.05,3.09,6.93,6.93,0,0,1-.34,2.09,9.18,9.18,0,0,1-1.07,2.2q-.73,1.12-1.31,2a17.73,17.73,0,0,1-1.63,1.93l-1.44,1.5q-.4.41-1.27,1.26c-.05.09,0,.16.05.19h5.28a1.32,1.32,0,0,0,1.11-.44,5.39,5.39,0,0,0,.7-1.67.39.39,0,0,1,.38-.3.82.82,0,0,1,.49.11q-.66,3.28-.74,3.83a.47.47,0,0,1-.55.44h-9c-.07,0-.14-.1-.21-.31a1.83,1.83,0,0,1-.1-.51,40.65,40.65,0,0,0,5.11-6.25,10.63,10.63,0,0,0,2.13-5.48,3.26,3.26,0,0,0-.74-2.28,2.51,2.51,0,0,0-1.94-.81,4.12,4.12,0,0,0-3.64,2.27.5.5,0,0,1-.34-.18c-.12-.12-.18-.21-.18-.26a3.22,3.22,0,0,1,.45-.89,10.08,10.08,0,0,1,1-1.23A5.16,5.16,0,0,1,115.77.62,5.09,5.09,0,0,1,117.95.14Z"/><path class="cls-1" d="M131.37,11.95q0-1.39.33-1.39h0l6.59-.33h0q.16,0,.16.25a4,4,0,0,1-.1,1,1.19,1.19,0,0,1-.18.45l-.08.05-6.59.3h-.05s0,0-.08-.08A.39.39,0,0,1,131.37,11.95Z"/><path class="cls-1" d="M152.64.14a3.44,3.44,0,0,1,2.88,1.37,4.94,4.94,0,0,1,1.05,3.09,6.93,6.93,0,0,1-.34,2.09,9.18,9.18,0,0,1-1.07,2.2q-.73,1.12-1.31,2a17.73,17.73,0,0,1-1.63,1.93l-1.44,1.5q-.4.41-1.27,1.26c-.05.09,0,.16.05.19h5.28a1.32,1.32,0,0,0,1.11-.44,5.39,5.39,0,0,0,.7-1.67.39.39,0,0,1,.38-.3.82.82,0,0,1,.49.11q-.66,3.28-.74,3.83a.47.47,0,0,1-.55.44h-9c-.07,0-.14-.1-.21-.31a1.83,1.83,0,0,1-.1-.51,40.65,40.65,0,0,0,5.11-6.25,10.63,10.63,0,0,0,2.13-5.48,3.26,3.26,0,0,0-.74-2.28,2.51,2.51,0,0,0-1.94-.81,4.12,4.12,0,0,0-3.64,2.27.5.5,0,0,1-.34-.18c-.12-.12-.18-.21-.18-.26a3.22,3.22,0,0,1,.45-.89,10.08,10.08,0,0,1,1-1.23A5.16,5.16,0,0,1,150.46.62,5.09,5.09,0,0,1,152.64.14Z"/><path class="cls-1" d="M165.13,9a11.46,11.46,0,0,1,1.61-6.26,5,5,0,0,1,8.71,0A11.52,11.52,0,0,1,177,9a11.47,11.47,0,0,1-1.61,6.26,5,5,0,0,1-8.68,0A11.4,11.4,0,0,1,165.13,9Zm2.41,0a14.18,14.18,0,0,0,1,5.54q1,2.26,2.46,2.26,1.75,0,2.72-2.27a14.44,14.44,0,0,0,1-5.66,13.5,13.5,0,0,0-1-5.43q-1-2.17-2.46-2.17-1.67,0-2.68,2.21A13.29,13.29,0,0,0,167.53,8.94Z"/><path class="cls-1" d="M186.89,4.13a1,1,0,0,1-.33-.31.72.72,0,0,1-.16-.37.22.22,0,0,1,.05-.16Q191.07.14,191.18.14h.05c.15,0,.25.17.33.52a9.31,9.31,0,0,0-.27,2.57V14a10.31,10.31,0,0,0,.22,2.43q.05.19.81.37a5.41,5.41,0,0,0,1,.18q.11,0,.11.49a.94.94,0,0,1,0,.3q-2.73-.14-3.31-.14t-3.17.14a.66.66,0,0,1-.11-.45c0-.23,0-.34.11-.34A5.36,5.36,0,0,0,188,16.8q.75-.18.81-.37a6.49,6.49,0,0,0,.16-1.56V5a9.9,9.9,0,0,0-.05-1.2,1.44,1.44,0,0,0-.12-.51.24.24,0,0,0-.21-.1,1.17,1.17,0,0,0-.48.16l-.72.41Z"/><path class="cls-1" d="M205.77,2.57a1.13,1.13,0,0,0-.83.38,2.61,2.61,0,0,0-.53.77,10.23,10.23,0,0,0-.36,1c0,.07-.15.12-.38.14a1.19,1.19,0,0,1-.55-.05l.4-1.82q.34-1.57.45-2.28,0-.33.44-.33h7.9q.44,0,1.12,0l.71,0q.19,0,.19.25a1.16,1.16,0,0,1-.11.42q-.11.26-.34.72l-.34.68-7.19,15.39a.42.42,0,0,1-.3.08,1,1,0,0,1-.63-.29q-.33-.29-.33-.48l7.27-14.52Z"/><rect class="cls-1" y="8.09" width="48.8" height="1.67"/><rect class="cls-1" x="223.07" y="8.09" width="48.8" height="1.67"/></g></g></svg>