<svg xmlns="http://www.w3.org/2000/svg" viewBox="0 0 287.33 32.33"><defs><style>.cls-1{fill:#fff;}</style></defs><title>Asset 3</title><g id="Layer_2" data-name="Layer 2"><g id="Layer_1-2" data-name="Layer 1"><path class="cls-1" d="M146.31,26.13c-.65-.34-.93-.49-1.11-.88a6.41,6.41,0,0,1-.34-1.52l-.11-.71-.51-3.2-.51-3.19c-.67-4.18-.67-4.18-1.22-8-.19-1.34-.45-3.14-.82-5.74-.1-.66.46-1.22,1-1.6a6.27,6.27,0,0,1,1-.54l.11,0-.15-.44a24.89,24.89,0,0,1-5.06,0l-.46,0,.25.39a3.68,3.68,0,0,1,.5,1.4c0,2.21-6.86,17-8.54,19.84-2.12-4.1-9.13-19.15-9.2-19.3a4.06,4.06,0,0,1,.31-2l.18-.37-.41,0a32.73,32.73,0,0,1-5,0L115.23.06l.9.58a8.33,8.33,0,0,0,.77.42c.94.47,2,1,2,2.27,0,3.68-1.53,10.47-2.77,15.92-.45,2-.88,3.88-1.16,5.33-.23,1.15-.87,1.4-1.84,1.78l-.37.14-1.27.51,1.36-.06,2-.07a28.46,28.46,0,0,1,3.59.06l1.88.32-1.74-.77c-1-.45-1.42-.73-1.42-1.88,0-1.71,2.36-14.75,3.11-17.43,1.4,2.75,8.42,17.73,9.29,19.62l.06.14h.52l.06-.13c1.17-2.48,2.3-5.06,3.39-7.56,1.8-4.11,3.65-8.35,5.75-12.29.15.75.33,1.56.51,2.42l.17.8c.93,4.26,2.09,9.57,2.13,13.49,0,.27,0,.49,0,.68,0,1.06,0,1.06-1.17,2.12l-.67.59h0l.78-.11a18.24,18.24,0,0,1,2.16-.08c1.19,0,2.57,0,3.57.09l1,0-.86-.48Z"/><path class="cls-1" d="M175.58,26.25a4,4,0,0,1-2.29-2.11c-1.58-4-4.75-11.7-7.07-17.35-1.27-3.11-2.28-5.57-2.47-6l-.19-.48-.24.45c-.88,1.68-3.75,8.22-6.49,14.47l-1.49,3.41-2.5,5.71c-.73,1.67-1.46,1.81-2,1.91l-.22,0-.23.69.35,0c1.4-.09,2.4-.12,3.1-.12h.64a3.76,3.76,0,0,1,.88.1l.8.25-.55-.63a1.81,1.81,0,0,1-.49-1.05,26.34,26.34,0,0,1,1.78-5.84H168.7l.36,1A28.23,28.23,0,0,1,170.5,25a2.32,2.32,0,0,1-.69,1.44l-.45.54.59-.07a43.29,43.29,0,0,1,5.64,0l.29,0-.12-.71Zm-17.86-8.41c.5-1.12,1.67-3.81,2.81-6.42,1-2.27,2.08-4.79,2.53-5.8l.51,1.25c1.54,3.75,3,7.29,4.41,11Z"/><path class="cls-1" d="M186.14,12.37c-2.61-2-5.08-3.82-5.08-6.58a4,4,0,0,1,4-3.91l.4,0a4.67,4.67,0,0,1,4.45,2.85l.08.19.48-.12,0-.12a7.09,7.09,0,0,0,.12-2.93l0-.13-.13,0a15.78,15.78,0,0,0-4.86-.95,6.17,6.17,0,0,0-6.46,6.3c0,3.51,2.85,5.75,5.61,7.91,2.58,2,5,3.93,5,6.72,0,3-2.6,4.36-5,4.36-3.2,0-3.6-.75-4.79-3l-.37-.68-.12-.22-.25.17-.31.21.34,4.24h.21c.79,0,1.59.13,2.36.23a24.71,24.71,0,0,0,3,.24c4.24,0,7.2-2.77,7.2-6.73C192,16.74,189,14.52,186.14,12.37Z"/><path class="cls-1" d="M216.9,3.33c-.57-1.5-1-2.56-1.93-2.56H196.84l-.06,0a4.08,4.08,0,0,0-1.4,2.37l-.1.31.1.1a1.06,1.06,0,0,0,.23.19l.26.17.1-.3c.29-.91,1.79-1.2,2.19-1.2h6.38c0,7.06,0,14.11,0,21v.28c0,1.55,0,2.13-1.65,2.57l-.2.05.1.7.22,0a31.42,31.42,0,0,1,5.45,0h.12l.42-.52-.27-.13a2.38,2.38,0,0,1-1.47-2.66c0-.11,0-.22,0-.32V2.44h7a2.75,2.75,0,0,1,1.88,1.07l0,0,.34.33.31-.18h0L217,3.5Z"/><path class="cls-1" d="M234.37,23.55c-.79,1.84-2.57,1.84-4.45,1.84h-5.49V14.07h.28c3.78-.16,6,0,6.57.6a.32.32,0,0,1,.12.24v.23H232v-.24c0-1.38,0-2.6,0-3.71l0-.31-.66.13,0,.17c-.1,1-3.54,1.37-7,1.2V2.4c.34,0,.79,0,1.29-.08,1.79-.13,5.13-.38,5.33.7l0,.12.75.32,0-.4s-.24-2.35-.9-2.35h-11l.24.36a.47.47,0,0,0,.1.25.76.76,0,0,0,.34.26c.41.22,1.18.62,1.18,2.46V21.7c0,.28,0,.54,0,.8,0,2,0,3.17-1.8,3.8l-.31.11.43.54h13.43l.07-.06A4.93,4.93,0,0,0,235,23.66v-.24h-.59Z"/><path class="cls-1" d="M261.34,26.21c-3.07,0-8.44-8.47-10.74-12.08l-.53-.84c1.87-1.23,4-3.55,4-6.3,0-4.12-2.82-6.58-7.55-6.58-.93,0-1.87.08-2.79.16a22.73,22.73,0,0,1-3.89.11h-.16l-.28.57.3.06a1.91,1.91,0,0,1,1.53,1.76c0,.2,0,20.4,0,21.67,0,.86-.44,1.07-1.25,1.44l-.29.14-.23.11.32.53h.13c.64,0,1.27,0,1.89-.05a19.65,19.65,0,0,1,3.48.05l.12,0,.57-.57-.34-.13c-1.5-.57-1.59-1.12-1.65-1.48a1.28,1.28,0,0,0-.07-.3V14.43h.36a21.38,21.38,0,0,0,3.11-.14c.48.7,1,1.49,1.52,2.32,3,4.68,6.74,10.5,12.05,10.5h.19l.38,0a.86.86,0,0,0,.8-.3l.08-.14-.1-.12A1.12,1.12,0,0,0,261.34,26.21Zm-16-13.11h-.15a6.73,6.73,0,0,1-1.37,0v-11A6,6,0,0,1,246,1.66c3.07,0,5.21,2.32,5.21,5.64C251.23,11.1,249.21,13.1,245.39,13.1Z"/><path class="cls-1" d="M286.83.72h-.11a43.35,43.35,0,0,1-5,0h-.15l-.29.58.21.11c.46.23.69.37.73.9-.28.87-7.78,16.91-9.52,20.44l-.21-.49C266,7.47,264.68,3.47,264.68,2.71s.44-1.1,1.1-1.56l.75-.52-.91.09a54.82,54.82,0,0,1-6.19,0l-.4,0,.36.72h.14a1.87,1.87,0,0,1,1.6.87c2.1,3.17,5.33,11.41,7.7,17.43.93,2.37,1.73,4.42,2.28,5.68-1.69,4.36-3.64,5.41-4.81,6a5.12,5.12,0,0,0-.76.46l-.52.42h1.37c2.32,0,5-2.63,7.33-7.21,3.82-7.55,7.94-16.75,9.11-19.39A9.4,9.4,0,0,1,285,2.53a8.38,8.38,0,0,1,2-1.19l.35-.12Z"/><path class="cls-1" d="M41.83,26a4,4,0,0,1-2.29-2.11c-1.57-3.93-4.71-11.6-7-17.21C31.22,3.47,30.19,1,30,.48L29.82,0l-.24.46c-1,2-4.89,10.81-8,17.9l-2.49,5.7c-.73,1.66-1.46,1.81-2,1.91l-.22,0-.23.69.35,0a20.37,20.37,0,0,1,4.62,0l.8.25-.55-.63a1.81,1.81,0,0,1-.49-1.05,26.31,26.31,0,0,1,1.78-5.83H35l.36,1a28.22,28.22,0,0,1,1.44,4.4,2.32,2.32,0,0,1-.69,1.44l-.45.54.59-.07a20.3,20.3,0,0,1,2.34-.1c.78,0,1.56,0,2.16,0l1.13.05.29,0L42,26ZM24,17.57c.51-1.12,1.68-3.83,2.82-6.45,1-2.26,2.07-4.76,2.52-5.77l.51,1.24c1.54,3.75,3,7.3,4.42,11Z"/><path class="cls-1" d="M60.18,23.32c-.73,1.84-3.22,1.84-5,1.84H52.82c-.87,0-1.7,0-2.54-.08,0-4,0-8.12,0-12.06,0-3.2,0-6.5,0-9.8a2,2,0,0,1,1.85-2.09h.07l.85-.73-.69,0a55,55,0,0,1-6.2,0l-.06.46a2.1,2.1,0,0,1,1.48,2.22V24a1.9,1.9,0,0,1-1.71,2l-.36.06.2.3,0,.07a.62.62,0,0,0,.22.23l.06,0H59.52l.07-.13a5.33,5.33,0,0,1,.31-.49,5.17,5.17,0,0,0,1-2.62l0-.26h-.66Z"/><path class="cls-1" d="M79.24,23.27c-.79,1.84-2.57,1.84-4.45,1.84H69.3V13.79h.28c3.78-.16,6,0,6.57.6a.32.32,0,0,1,.12.24v.23h.63V14.6c0-1.39,0-2.61,0-3.71l0-.3-.66.13,0,.17c-.09,1-3.54,1.38-7,1.2v-10c.34,0,.78,0,1.29-.08,1.79-.13,5.13-.38,5.33.7l0,.12.75.32,0-.39S76.42.45,75.76.45h-11L65,.82a.47.47,0,0,0,.1.25.76.76,0,0,0,.34.26c.41.22,1.18.62,1.18,2.46V21.42c0,.28,0,.54,0,.8,0,2,0,3.17-1.8,3.8l-.31.11.44.54H78.42l.07-.06a4.93,4.93,0,0,0,1.41-3.24v-.24H79.3Z"/><path class="cls-1" d="M92.31,12.09c-2.61-2-5.08-3.82-5.08-6.58a4.09,4.09,0,0,1,4.36-3.93A4.67,4.67,0,0,1,96,4.43l.08.19.48-.12,0-.12a7.07,7.07,0,0,0,.12-2.93l0-.13-.13,0A15.77,15.77,0,0,0,91.74.33a6.18,6.18,0,0,0-6.46,6.3c0,3.51,2.85,5.75,5.61,7.91,2.58,2,5,3.93,5,6.72,0,3-2.6,4.36-5,4.36-3.2,0-3.6-.75-4.79-3L85.72,22l-.12-.22-.56.37.34,4.23h.21c.79,0,1.59.13,2.36.23a24.71,24.71,0,0,0,3,.24c4.24,0,7.2-2.77,7.2-6.73C98.13,16.46,95.17,14.24,92.31,12.09Z"/><path class="cls-1" d="M7.27,12.54C4.66,10.58,2.19,8.72,2.19,6A4.09,4.09,0,0,1,6.55,2,4.67,4.67,0,0,1,11,4.88l.08.19L11.56,5l0-.12a4,4,0,0,0,.15-.69,7.4,7.4,0,0,0,0-2.24l0-.13-.13,0A15.76,15.76,0,0,0,6.71.79,6.18,6.18,0,0,0,.24,7.09C.24,10.6,3.1,12.84,5.85,15c2.58,2,5,3.93,5,6.72,0,3-2.6,4.36-5,4.36-3.2,0-3.6-.75-4.79-3l-.37-.69L.56,22.2,0,22.58l.34,4.23H.55c.79,0,1.59.13,2.36.23a24.71,24.71,0,0,0,3,.24c4.24,0,7.2-2.77,7.2-6.73C13.09,16.92,10.13,14.7,7.27,12.54Z"/></g></g></svg>