<svg xmlns="http://www.w3.org/2000/svg" viewBox="0 0 894.96 100.69"><defs><style>.cls-1{fill:none;}</style></defs><title>smlogo</title><g id="Layer_2" data-name="Layer 2"><g id="Layer_1-2" data-name="Layer 1"><path class="cls-1" d="M91.28,16.66c-1.41,3.16-4.8,11-7.87,18-3.54,8.16-7.2,16.56-8.77,20.06h32c-4.43-11.49-9-22.56-13.78-34.26Z"/><path class="cls-1" d="M507.88,17.53c-1.42,3.16-4.82,11-7.89,18.06-3.53,8.13-7.18,16.52-8.75,20h32c-4.41-11.44-8.93-22.46-13.72-34.11Z"/><path class="cls-1" d="M766.27,5.18a18.6,18.6,0,0,0-6.66,1.22V40.69a20.9,20.9,0,0,0,4.27.13h.46c11.89,0,18.18-6.24,18.18-18.05C782.51,12.4,775.83,5.18,766.27,5.18Z"/><path d="M455.71,81.38c-3.57-1.88-3.64-1.92-4.51-7.46-1.14-7.18-2-12.72-2.72-17.11l-.8-5c-2.08-13-2.08-13-3.79-25-.6-4.17-1.4-9.78-2.57-17.89-.56-3.76,5.71-6.44,6.56-6.78l.09,0L447.51.68c-1.72.48-7.62.47-15.77,0L430.32.57l.77,1.21a11.48,11.48,0,0,1,1.56,4.35c0,6.88-21.36,52.91-26.59,61.8-6.59-12.76-28.43-59.64-28.65-60.12a12.64,12.64,0,0,1,.81-5.71c.06-.14.11-.27.18-.4l.55-1.15-1.27.11a102.09,102.09,0,0,1-15.45,0L358.92.19,361.72,2a26,26,0,0,0,2.41,1.31c2.93,1.47,6.25,3.13,6.25,7.07,0,11.46-4.78,32.6-8.62,49.59-1.41,6.22-2.73,12.09-3.62,16.59-.72,3.58-2.71,4.36-5.74,5.54l-1.14.45-3.94,1.6,4.25-.19c5.37-.24,14.85-.46,17.44,0l5.85,1-5.43-2.4c-3.2-1.41-4.41-2.28-4.41-5.85a59.77,59.77,0,0,1,.69-6.28c1.89-13.15,7.09-41.22,9-48,2.86,5.62,13.26,27.64,20.84,43.79l.54,1.14,3,6.34.88,1.87.81,1.72,2.92,6.25.2.42h1.62l.2-.42c3.64-7.71,7.16-15.76,10.57-23.55,5.6-12.79,11.38-26,17.91-38.28.28,1.4.6,2.89.92,4.42.39,1.8.79,3.67,1.21,5.6l.58,2.65c2.77,12.77,5.93,27.94,6.07,39.37,0,.83,0,1.52.06,2.12.13,3.29.13,3.29-3.64,6.6l-2.08,1.83,2.44-.36a56.73,56.73,0,0,1,6.74-.26c3.71,0,8,.13,11.11.27l3.08.14L458,82.59C457.09,82.11,456.35,81.72,455.71,81.38Z"/><path d="M546.88,81.77c-1.33-.1-5.51-2.75-7.13-6.57L539.27,74c-5.07-12.63-14.54-35.77-21.52-52.81-4-9.72-7.12-17.39-7.7-18.85L509.47.88l-.74,1.42c-3.24,6.2-15.2,33.6-24.81,55.62-3,6.82-5.7,13.06-7.82,17.87-2.27,5.19-4.56,5.63-6.23,5.95l-.69.14L468.47,84l1.08-.07c4.37-.28,7.47-.38,9.67-.38a22.12,22.12,0,0,1,4.51.29l.23.06,2.49.79-1.72-2a5.63,5.63,0,0,1-1.52-3.28c0-2.3,4-15.92,5.55-18.17h36.71c.27.76.67,1.8,1.12,3,1.68,4.45,4.48,11.91,4.48,13.71,0,2-1.45,3.67-2.14,4.47l-1.41,1.69,1.83-.23a86.48,86.48,0,0,1,11.18-.26c3.52.09,6.33.26,6.38.26l.92.06-.37-2.2ZM491.24,55.59c1.57-3.49,5.21-11.87,8.75-20,3.07-7.07,6.47-14.9,7.89-18.06l1.62,4c4.79,11.65,9.31,22.67,13.72,34.11Z"/><path d="M579.78,38.52C571.64,32.4,564,26.62,564,18c0-7.95,7-12.24,13.57-12.24,6.32,0,11.63,3.4,13.87,8.88l.24.59,1.49-.37.13-.38a22.1,22.1,0,0,0,.39-9.11L593.55,5l-.4-.13C588.44,3.31,583.35,1.9,578,1.9c-11.66,0-20.12,8.26-20.12,19.64,0,10.93,8.89,17.9,17.48,24.65,8,6.3,15.61,12.25,15.61,20.92,0,9.32-8.1,13.57-15.63,13.57-10,0-11.22-2.33-14.93-9.25-.36-.67-.74-1.38-1.15-2.13l-.38-.7-.87.58-.88.59.79,9.89.26,3.3.65,0c2.46.11,4.94.41,7.34.7a77,77,0,0,0,9.29.75c13.2,0,22.42-8.62,22.42-21C597.89,52.15,588.68,45.22,579.78,38.52Z"/><path d="M675.58,10.37c-1.76-4.68-3.23-8-6-8H613.11l-.18.12c-2.59,1.73-3.53,4.72-4.37,7.37l-.3,1,.31.31a3.37,3.37,0,0,0,.71.58l.8.54.3-.92C611.3,8.5,616,7.6,617.21,7.6h19.88c.12,22,.12,43.95,0,65.32v.88c0,4.84,0,6.65-5.15,8l-.63.17.32,2.2.7-.08a100.11,100.11,0,0,1,17,0l.38,0,1.3-1.63-.84-.39c-4.82-2.26-4.68-5.75-4.58-8.3,0-.35,0-.68,0-1V7.6h21.69c2.7,0,4.95,2.27,5.85,3.34L673,11l1,1,1-.57v0l.77-.51Z"/><path d="M730,73.37c-2.47,5.74-8,5.74-13.87,5.74H699V43.82l.87,0c11.76-.51,18.64.12,20.46,1.85a1,1,0,0,1,.37.74v.73h2l0-.75c-.14-4.31-.1-8.09.12-11.57l.06-1-2.07.42,0,.54c-.3,3.19-11,4.28-21.69,3.74V7.48c1.05,0,2.45-.13,4-.24,5.58-.42,16-1.19,16.6,2.19l.07.38,2.34,1-.12-1.23c0-.07-.76-7.33-2.79-7.33H686.31L685,2.3l.74,1.13a1.47,1.47,0,0,0,.32.77,2.38,2.38,0,0,0,1.07.82c1.29.67,3.69,1.93,3.69,7.67V67.59c0,.86,0,1.7,0,2.49.09,6.15.15,9.87-5.59,11.85l-1,.34L685.6,84h41.82l.2-.17C731.7,80.35,732,74,732,73.68l0-.76h-1.85Z"/><path d="M814,81.65c-9.56,0-26.3-26.38-33.45-37.65l-1.66-2.61c5.82-3.82,12.32-11.06,12.32-19.62,0-12.83-8.79-20.49-23.52-20.49-2.89,0-5.83.25-8.67.5a70.83,70.83,0,0,1-12.11.35l-.5,0-.88,1.77.92.2a6,6,0,0,1,4.75,5.47c0,.64.12,63.54,0,67.51,0,2.69-1.38,3.33-3.88,4.49l-.92.43-.72.35,1,1.65h.41c2,0,4-.08,5.9-.17a61.11,61.11,0,0,1,10.85.16l.36.05L766,82.21l-1.06-.4c-4.67-1.76-4.94-3.48-5.12-4.62a4,4,0,0,0-.22-.92V44.93h1.13a67.07,67.07,0,0,0,9.67-.44c1.5,2.19,3.08,4.65,4.74,7.24,9.35,14.57,21,32.71,37.54,32.71l.61,0c.37,0,.77,0,1.18,0a2.69,2.69,0,0,0,2.48-.93l.25-.44-.32-.39A3.48,3.48,0,0,0,814,81.65ZM764.33,40.8h-.46a20.9,20.9,0,0,1-4.27-.13V6.39a18.6,18.6,0,0,1,6.66-1.22c9.56,0,16.24,7.23,16.24,17.57C782.51,34.56,776.22,40.8,764.33,40.8Z"/><path d="M893.42,2.23l-.34,0a134.26,134.26,0,0,1-15.52,0l-.48,0L876.16,4l.65.33c1.4.7,2.15,1.15,2.26,2.8-.87,2.72-24.24,52.66-29.64,63.67l-.67-1.52c-20.12-46.05-24.34-58.52-24.34-60.87,0-2.06,1.38-3.43,3.44-4.85L830.21,2l-2.83.28a164.42,164.42,0,0,1-18.27,0l-1,0-1.25-.06L808,4.45h.45a5.83,5.83,0,0,1,5,2.7c6.53,9.88,16.61,35.54,24,54.29,2.9,7.37,5.4,13.75,7.11,17.69-5.25,13.59-11.34,16.86-15,18.82a15.91,15.91,0,0,0-2.38,1.45l-1.62,1.3h4.26c7.24,0,15.56-8.18,22.83-22.46,11.9-23.51,24.73-52.18,28.38-60.4,2-4.53,4.51-8.23,6.64-10a26.06,26.06,0,0,1,6.27-3.71L895,3.78Z"/><path d="M130.29,80.9c-1.33-.1-5.51-2.75-7.13-6.57-4.89-12.22-14.67-36.11-21.81-53.55C97.27,10.83,94,3,93.47,1.49L92.88,0l-.74,1.42C88.89,7.64,76.89,35.13,67.25,57.23,64.3,64,61.61,70.15,59.51,74.92c-2.27,5.18-4.56,5.63-6.23,5.95l-.69.14-.72,2.16L53,83.09c8-.5,12.88-.51,14.4,0l2.49.79-1.72-2a5.62,5.62,0,0,1-1.51-3.28c0-2.3,4-15.92,5.55-18.17h36.71c.27.76.67,1.82,1.13,3,1.67,4.45,4.47,11.89,4.47,13.69,0,2-1.45,3.68-2.15,4.48l-1.42,1.68,1.84-.23c5.68-.71,17.44,0,17.56,0l.92.06-.37-2.2ZM74.65,54.72c1.57-3.5,5.23-11.9,8.77-20.06,3.06-7,6.45-14.85,7.87-18l1.56,3.81c4.81,11.7,9.36,22.77,13.78,34.26Z"/><path d="M187.44,72.64c-2.28,5.74-10,5.72-15.67,5.72h-.62c-1.31,0-2.62,0-3.92,0-3.68,0-7.17.08-10.63-.21-.13-12.6-.08-25.28,0-37.54,0-10,.08-20.26,0-30.54a6.06,6.06,0,0,1,5.76-6.52l.23,0,2.66-2.27-2.14.11a170.19,170.19,0,0,1-19.32,0l-.17,1.45c2.72.52,4.62,3.37,4.62,6.92V74.6a5.91,5.91,0,0,1-5.33,6.31l-1.11.19.63.94.13.21a1.94,1.94,0,0,0,.68.72l.18.12h42l.21-.39a16.43,16.43,0,0,1,1-1.54,16.08,16.08,0,0,0,3-8.17l.1-.82h-2Z"/><path d="M246.83,72.49c-2.48,5.74-8,5.74-13.87,5.74H215.87V43l.87,0c11.75-.51,18.64.12,20.46,1.85a1,1,0,0,1,.37.74v.73h2l0-.75c-.13-4.39-.1-8.07.12-11.57l.06-.94-2.07.41,0,.54c-.3,3.19-11,4.29-21.69,3.74V6.61c1.05,0,2.44-.13,4-.24,5.58-.42,16-1.19,16.61,2.19l.07.38,2.34,1-.12-1.23c0-.07-.75-7.32-2.79-7.32H203.14l-1.35,0,.76,1.14a1.45,1.45,0,0,0,.32.77,2.37,2.37,0,0,0,1.07.82c1.29.67,3.68,1.93,3.68,7.67V66.72c0,.86,0,1.69,0,2.49.09,6.16.15,9.87-5.59,11.85l-1,.34h0l1.36,1.69h41.83l.2-.17c4.08-3.44,4.37-9.83,4.38-10.11l0-.76H247Z"/><path d="M287.52,37.65c-8.14-6.12-15.82-11.9-15.82-20.5,0-8,7-12.24,13.58-12.24,6.32,0,11.63,3.4,13.87,8.88l.24.59,1.49-.37.13-.38a22.07,22.07,0,0,0,.39-9.12l-.09-.41-.4-.13C296.19,2.44,291.1,1,285.76,1c-11.66,0-20.13,8.26-20.13,19.64,0,10.93,8.89,17.9,17.48,24.65,8,6.3,15.62,12.26,15.62,20.93,0,9.32-8.1,13.57-15.63,13.57-10,0-11.21-2.33-14.93-9.24-.36-.67-.75-1.39-1.16-2.14l-.38-.7-1.74,1.17,1.06,13.19.64,0c2.46.11,4.94.41,7.35.7a77,77,0,0,0,9.29.75c13.2,0,22.43-8.62,22.43-21C305.64,51.28,296.43,44.35,287.52,37.65Z"/><path d="M22.65,39.07C14.51,33,6.83,27.17,6.83,18.57c0-8,7-12.24,13.58-12.24,6.32,0,11.63,3.4,13.87,8.88l.24.59L36,15.42l.13-.38a22.07,22.07,0,0,0,.39-9.12l-.09-.41L36,5.39c-4.7-1.53-9.79-2.94-15.13-2.94C9.22,2.45.76,10.71.76,22.09.76,33,9.64,40,18.24,46.73,26.27,53,33.85,59,33.85,67.66c0,9.32-8.1,13.57-15.63,13.57C8.25,81.24,7,78.91,3.29,72c-.36-.67-.75-1.38-1.16-2.14l-.38-.7L0,70.33,1.06,83.52l.64,0c2.46.11,4.94.41,7.34.7a77,77,0,0,0,9.3.75c13.2,0,22.43-8.62,22.43-21C40.77,52.7,31.56,45.77,22.65,39.07Z"/></g></g></svg>